<?xml version="1.0" encoding="utf-8"?>
<!-- Generator: Adobe Illustrator 18.0.0, SVG Export Plug-In . SVG Version: 6.00 Build 0)  -->
<!DOCTYPE svg PUBLIC "-//W3C//DTD SVG 1.1//EN" "http://www.w3.org/Graphics/SVG/1.1/DTD/svg11.dtd">
<svg version="1.1" id="Layer_1" xmlns="http://www.w3.org/2000/svg" xmlns:xlink="http://www.w3.org/1999/xlink" x="0px" y="0px"
	 viewBox="0 0 321 91" enable-background="new 0 0 321 91" xml:space="preserve">
<g id="_x33_YABvg.tif">
	<g>
		<g>
			<path fill="#223768" d="M41.9,4.6c0.9,0.2,1.8,0.4,2.7,0.5c0.2,0,0.4,0.1,0.6,0.1c1.5,0.4,3,0.9,4.4,1.5c1.3,0.6,2.6,1.3,3.9,2.2
				c1.6,1.1,3,2.4,4.4,3.8c0.2,0.2,0.4,0.2,0.6,0.2c1.7,0,3.4,0.4,5,1.1c1.2,0.5,2.2,1.5,2.8,2.7c0.2,0.4,0.4,0.7,0.6,1.1
				c0.8,1.9,0.5,3.9,0.1,5.8c-0.2,1.1-0.6,2.1-1,3.1c-0.1,0.3-0.1,0.5,0,0.8c0.5,2,0.9,4,1,6c0.1,1.5,0.1,3,0.1,4.5
				c-0.1,1.9-0.2,3.8-0.6,5.6c-0.3,1.6-0.7,3.2-1.2,4.8c-0.4,1.2-0.8,2.3-1.3,3.4c-0.5,1.2-1.1,2.3-1.8,3.4
				c-0.7,1.1-1.5,2.2-2.3,3.3c-0.5,0.6-0.8,1.3-1.3,1.9c-0.6,0.8-1.1,1.6-1.8,2.3c-0.7,0.8-1.5,1.6-2.3,2.4c-0.9,0.9-1.9,1.7-3,2.4
				c-1,0.7-1.9,1.3-3,1.8c-0.9,0.5-1.9,0.9-2.9,1.3c-0.9,0.3-1.8,0.5-2.7,0.8c0.1,0.3,0.3,0.1,0.4,0.2c1,0.4,2,0.9,3,1.3
				c1.1,0.5,2.2,1,3.4,1.4c0.6,0.2,1.3,0.4,1.9,0.6c1.5,0.4,2.9,0.8,4.5,0.7c1.1,0,2.2-0.3,3.2-0.7c1.2-0.5,2.1-1.3,3.1-2
				c0.5-0.3,1-0.4,1.5-0.4c0.4,0,0.7,0.4,0.7,0.8c0,0.4,0.1,0.8,0,1.1c-0.3,1-0.5,2-0.9,3c-0.3,0.9-0.7,1.8-1.2,2.6
				c-0.7,1.1-1.6,2.1-2.6,3c-0.9,0.8-2,1.5-3.2,2c-2.2,0.9-4.5,1.2-6.9,0.7c-0.9-0.2-1.7-0.5-2.6-0.7c-0.5-0.1-1-0.4-1.5-0.6
				c-2.1-1-3.9-2.4-5.6-3.9c-1.3-1.2-2.5-2.4-3.8-3.6c-1-0.9-2-1.8-3.1-2.6c-1.1-0.8-2.2-1.5-3.5-2c-1.9-0.7-3.8-1.2-5.8-0.9
				c-0.6,0.1-1.1,0.2-1.7,0.5c-0.8,0.3-1.6,0.4-2.4,0.5c-0.9,0-1.8-0.7-1.7-1.7c0.1-1.3,0.4-1.7,1.6-2.2c1.1-0.5,2.3-0.4,3.4-0.9
				c-0.5-0.6-1.3-1-1.9-1.6c-1.3-1.1-2.4-2.3-3.5-3.6c-0.2-0.3-0.4-0.4-0.8-0.4c-1.7,0-3.4-0.2-5-0.8c-1.3-0.5-2.4-1.4-3-2.6
				c-0.2-0.4-0.5-0.8-0.7-1.2c-0.4-0.9-0.5-1.7-0.5-2.6c0-1.4,0.1-2.8,0.5-4.1c0.4-1.5,1-2.9,1.8-4.3c0.3-0.6,0.4-1.2,0.3-1.9
				c-0.3-2.1-0.3-4.2-0.3-6.3c0-0.8,0.1-1.7,0.2-2.5c0.2-1,0.2-2,0.2-3c0-0.6,0.2-1.1,0.4-1.6c0.2-0.4,0.3-0.8,0.5-1.3
				c0.1-0.2,0.1-0.4,0-0.6c-0.2-0.5-0.4-1-0.6-1.5c-0.3-0.9-0.7-1.8-0.9-2.7c0-0.2-0.2-0.2-0.3-0.2c-1.3-0.6-1.4-2.1-0.6-3.1
				c0.7-0.9,2.5-0.8,3,0.2c0.1,0.2,0.1,0.5,0,0.8c-0.2,0.9,0.3,1.5,1,2c0-0.7,0.2-1.3,0.4-1.9c0.1-0.3,0.1-0.6-0.2-0.8
				c-0.7-0.6-0.9-1.7-0.5-2.4c0.5-0.9,1.6-1.5,2.5-1.3c0.5,0.1,0.9,0.4,1.2,1c0.5-0.6,0.9-1.2,1.3-1.8c1-1.6,2.2-3.1,3.5-4.5
				c1.2-1.3,2.6-2.5,4-3.6c0.9-0.6,1.8-1.2,2.7-1.7c0.8-0.4,1.7-0.9,2.5-1.2C32,5.9,33.4,5.4,35,5.1c0.8-0.1,1.6-0.2,2.4-0.5
				C38.9,4.6,40.4,4.6,41.9,4.6z M20.8,15.3c0-0.2,0-0.5,0-0.7c-0.3,0.2-0.5,0.4-0.7,0.7c-0.4,0.6-1,1.2-1.3,1.8
				c-0.1,0.2-0.2,0.4-0.3,0.5c-0.2,0.1-0.1,0.3-0.2,0.5c0.7-0.3,1.5-0.4,2.2-0.2c0.1-0.5,0.4-0.7,0.8-0.9
				C21.1,16.4,21,15.8,20.8,15.3z M23,52.9c0.9,0,1.7,0,2.6,0c0-0.9,0-1.7,0-2.5c-0.9,0-1.7,0-2.5,0C23,51.3,23,52.1,23,52.9
				c-0.8,0-1.7,0-2.5,0c0,0.9,0,1.7,0,2.5c0.9,0,1.7,0,2.5,0C23,54.6,23,53.8,23,52.9z M28.1,8.3c-2.6,1.5-5,3.4-7,5.8
				c0.4,0.1,0.7-0.1,1,0c0.1,0.2,0.4,0.1,0.5,0.1c0.6,0.1,0.7,0.1,0.9-0.5c0.3-0.7,0.8-0.8,1.4-0.4c0.3,0.2,0.3,0.6,0.8,0.6
				c-0.2-0.7-0.4-1.4-0.6-2c0-0.3,0-0.7,0-1c0-0.4,0.2-0.5,0.6-0.5c0.5,0,0.9,0.1,1.4,0.4c0.4-0.8,0.7-1.5,1-2.3
				c0-0.1,0.2-0.1,0.1-0.2C28.2,8.2,28.1,8.3,28.1,8.3z M59.8,57.3L59.8,57.3c0.6-0.4,0.9-1,1.2-1.6c0.7-1,1.2-2.1,1.8-3.2
				c0.5-1,0.9-2,1.3-3c0.6-1.5,1-3.1,1.4-4.7c0.1-0.3,0.2-0.6,0.2-0.9c0.2-1.6,0.5-3.2,0.6-4.9c0.1-2.5,0.1-4.9-0.2-7.3
				c-0.1-0.7-0.3-1.4-0.4-2.1c-0.2-1.7-0.8-3.2-1.2-4.8c-0.2-0.8-0.6-1.6-0.9-2.4c-0.1-0.4-0.4-0.6-0.9-0.6c-1.1,0-2.1,0.2-3.2,0.3
				c-0.2,0-0.4,0-0.6,0c-1.1,0.3-2.3,0.5-3.4,0.8c-0.8,0.2-1.5,0.5-2.3,0.7c-0.7,0.2-1.3,0.5-2,0.8c0.4,0.3,0.5,0.7,0.7,1.1
				c0.4,0.7,0.9,1.5,1.2,2.3c0.5,1.1,1,2.3,1.3,3.5c0.2,0.8,0.6,1.7,0.7,2.5c0.3,1.7,0.6,3.4,0.7,5.1c0.2,2.9,0.1,5.8-0.4,8.7
				c-0.2,1.4-0.6,2.8-1,4.1c-0.2,0.7-0.5,1.3-0.7,2c-0.5,1.3-1.1,2.5-1.8,3.7c-0.6,1-1.3,2-2,2.9c-0.9,1.1-1.8,2.2-2.9,3.2
				c-1.2,1.1-2.5,2-3.9,2.8c-1.6,0.9-3.3,1.6-5.1,2c-1.6,0.4-3.1,0.4-4.7,0.5c-1.6,0.1-3.1-0.2-4.6-0.6c-1.7-0.4-3.3-1.2-4.9-2.1
				c-1-0.6-1.9-1.3-2.7-2c-1.6-1.4-3-2.9-4.2-4.6c-0.6-0.9-1.2-1.8-1.7-2.8c-0.1-0.2-0.2-0.4-0.4-0.3c-0.2,0.1-0.2,0.3-0.1,0.5
				c0.5,1.1,1.2,2.1,1.9,3.1c0.7,1,1.5,2,2.4,2.9c1.3,1.4,2.8,2.8,4.4,3.9c0.4,0.2,0.8,0.4,1.1,0.7c-0.1,0.1-0.3,0.2-0.4,0.2
				c-1.5,0.2-3,0.5-4.5,1c-0.8,0.3-1.2,1-1.1,1.9c0.1,0.6,0.8,1,1.7,0.8c0.6-0.1,1.1-0.2,1.7-0.4c0.6-0.3,1.2-0.4,1.8-0.5
				c0.9-0.2,1.7-0.1,2.6,0c1.2,0.1,2.4,0.4,3.6,0.9c1.6,0.7,3.1,1.7,4.5,2.9c1.5,1.3,3,2.7,4.5,4.1c1.1,1,2.1,2.1,3.3,2.9
				c0.8,0.5,1.5,1,2.3,1.5c0.9,0.5,1.8,1,2.7,1.3c0.9,0.3,1.8,0.5,2.8,0.7c1.7,0.4,3.4,0.1,5-0.4c1.4-0.4,2.6-1.1,3.8-2
				c1.2-0.9,2.1-2,2.9-3.2c0.8-1.3,1.5-2.8,1.7-4.4c0.2-0.5,0.4-1,0.4-1.5c0-0.6-0.3-0.8-0.9-0.6c-0.5,0.1-0.8,0.5-1.2,0.8
				c-1,0.8-2,1.4-3.2,1.8c-1.6,0.5-3.3,0.6-5,0.3c-1.8-0.3-3.5-0.8-5.2-1.5c-1.4-0.6-2.8-1.3-4.3-1.8c-0.6-0.2-1.2-0.5-1.8-0.7
				c-0.7-0.3-1.4-0.4-2-0.8c1.2-0.1,2.3-0.4,3.4-0.7c1.5-0.5,3-1.1,4.4-1.8c0.7-0.4,1.4-0.8,2.1-1.2c0.8-0.5,1.6-1.1,2.3-1.7
				c1.8-1.5,3.4-3.3,4.8-5.2c0.7-0.9,1.3-1.8,1.9-2.8C59.6,57.6,60,57.6,59.8,57.3z M30.7,9.4c0.1,0.2,0.2,0.4,0.3,0.7
				c0.3-0.3,0.7-0.4,0.9-0.6c0.3-0.2,0.7-0.3,1-0.1c0.4,0.2,0.3,0.6,0.2,0.9c0,0,0,0,0,0.1c-0.1,0.7-0.3,1.4-0.4,2.1
				c0,0.3-0.4,0.5-0.2,0.9c0.4-0.3,0.7-0.7,1-1c0.6-0.7,1.3-0.6,1.6,0.2c0.1,0.1,0.1,0.2,0.3,0.3c0.1-0.1,0.3-0.1,0.5-0.2
				c0.5-0.3,1.1-0.4,1.7-0.5c0.6-0.1,0.7,0,0.7,0.7c0,0.6-0.2,1.2-0.4,1.8c0.2,0.1,0.4,0.2,0.6,0.2c0.9,0.1,1.8,0.5,2.6,0.8
				c0.8,0.3,1.6,0.6,2.3,1.2c0.1,0.1,0.3,0.1,0.4,0c0.3-0.2,0.7-0.3,1-0.4c1.1-0.6,2.2-1,3.3-1.4c0.7-0.3,1.4-0.5,2.1-0.7
				c0.7-0.2,1.4-0.4,2.2-0.6c1.6-0.4,3.2-0.6,4.9-0.9c-3.5-3.6-7.6-6-12.4-7.2c-5.3-1.3-10.5-0.5-15.5,1.9c0.3,0.1,0.5,0.2,0.6,0.5
				C30.1,8.6,30.4,9.1,30.7,9.4z M37.9,43c-0.8,0-1.6,0-2.4,0c0,0.9,0,1.7,0,2.5c0.9,0,1.7,0,2.6,0c0-0.9,0-1.7,0-2.5
				c0.8,0,1.5,0,2.3,0c0,0.9,0,1.7,0,2.6c0.9,0,1.6,0,2.5,0c0,0.8,0,1.6,0,2.4c0.9,0.1,1.7,0,2.5,0.1c0,0.8,0,1.5,0,2.3
				c-0.9,0-1.7,0-2.6,0c0,0.9,0,1.7,0,2.5c-0.8,0-1.6,0-2.3,0c0-0.9,0-1.7,0-2.6c-0.8,0-1.6,0-2.5,0c0-0.9,0-1.6,0-2.4
				c-0.9,0-1.7,0-2.5,0c0,0.9,0,1.7,0,2.6c0.8,0,1.6,0,2.4,0c0,1.7,0,3.4,0,5c-1.6,0-3.2,0-4.9,0c0-1.7,0-3.3,0-5
				c-0.9,0-1.7,0-2.6,0c0,1.7,0,3.3,0,5c-1.6,0-3.3,0-4.8,0c0,1.7,0,3.3,0,4.9c0.9,0,1.7,0,2.6,0c0-0.8,0-1.5,0-2.3
				c0.9,0,1.6,0,2.5,0c0-0.8,0-1.6,0-2.4c0.8,0,1.6,0,2.5,0c0,0.8,0,1.6,0,2.4c0.8,0,1.6,0,2.4,0c0,0.8,0,1.5,0,2.3
				c-1.7,0-3.3,0-5,0c0,0.9,0,1.7,0,2.6c1.7,0,3.3,0,5,0c0,0.9,0,1.7,0,2.5c-0.8,0.1-1.5-0.2-2.3-0.2c-1.5-0.1-2.8-0.7-4.2-1.3
				c-0.8-0.3-1.6-0.8-2.4-1.3c-1.1-0.7-2.2-1.5-3.2-2.4c-1.1-1-2.2-2.1-3.1-3.3c-0.6-0.7-1.1-1.5-1.6-2.3c-0.5-0.8-0.9-1.7-1.4-2.4
				c-0.2,0-0.2,0.1-0.3,0.2c-0.4,0.8-0.9,1.5-1.3,2.3c-0.3,0.5-0.1,1,0.1,1.5c0.1,0.1,0.2,0.3,0.3,0.4c0.4,1,1.1,1.9,1.7,2.8
				c1.1,1.6,2.5,3,4,4.3c1.4,1.2,2.9,2.1,4.6,2.9c1.4,0.7,2.9,1.1,4.5,1.4c0.4,0.1,0.9,0.2,1.3,0.2c2.5,0.1,5-0.1,7.4-0.9
				c0.5-0.2,1-0.4,1.5-0.6c0.9-0.3,1.8-0.8,2.6-1.3c0.8-0.5,1.6-1.1,2.4-1.7c1.3-1,2.4-2.2,3.3-3.5c0.8-1.2,1.6-2.4,2.2-3.7
				c0.7-1.5,1.3-2.9,1.8-4.5c0.4-1.4,0.7-2.8,1-4.3c0.4-2.3,0.5-4.5,0.5-6.8c0-0.2,0.1-0.5-0.1-0.7c-0.6,0-1.2,0-1.8,0
				c0-1.7,0-3.3,0-4.9c-0.9,0-1.6,0-2.5,0c0-1.7,0-3.2,0-4.8c-0.9,0-1.7,0-2.5,0c0,1.7,0,3.3,0,5c0.8,0,1.6,0,2.4,0
				c0,1.6,0,3.2,0,4.8c-0.8,0-1.6,0-2.4,0c0,0.9,0,1.7,0,2.6c0.8,0,1.6,0,2.4,0c0,1.7,0,3.3,0,4.9c-0.8,0-1.5,0-2.3,0
				c0-0.8,0-1.6,0-2.5c-1.7,0-3.4,0-5.1,0c0-0.9,0-1.6,0-2.5c-0.8,0-1.6,0-2.4,0c0-0.8,0-1.6,0-2.5c0.8,0,1.6,0,2.4,0
				c0-0.9,0-1.7,0-2.5c-0.9,0-1.7,0-2.6,0c0,0.8,0,1.6,0,2.4c-0.8,0-1.5,0-2.3,0c-0.1-0.8,0-1.6-0.1-2.4c-0.9,0-1.7,0-2.5,0
				c0,0.9,0,1.7,0,2.6c0.8,0,1.6,0,2.4,0C37.9,41.3,37.9,42.1,37.9,43z M66.4,21.5c0-0.1,0.1-0.1,0.1-0.2c0.1-1.4,0-2.7-0.6-3.9
				c-0.3-0.6-0.7-1.1-1.2-1.6c-0.6-0.6-1.3-1-2.1-1.3c-1-0.4-2-0.6-3.1-0.6c-1.5-0.1-3,0-4.5,0.2c-1.8,0.3-3.5,0.7-5.2,1.3
				c-0.5,0.2-1.1,0.4-1.6,0.6c-1.1,0.3-2.1,0.8-3.2,1.2c-0.9,0.4-1.8,0.9-2.8,1.3c-1.8,0.9-3.6,1.9-5.4,2.9
				c-1.2,0.7-2.3,1.5-3.5,2.2c-1.4,0.9-2.6,1.8-3.9,2.8c-1.3,1-2.6,2-3.9,3.1c-0.6,0.5-1.3,1-1.9,1.6c-0.8,0.8-1.6,1.5-2.4,2.3
				c-1.3,1.3-2.6,2.6-3.8,4c-1.6,1.9-3.2,3.8-4.6,5.9c-1,1.5-1.9,3.1-2.7,4.7c-0.7,1.4-1.1,3-1.5,4.5c-0.4,1.7-0.3,3.3,0.4,4.8
				c0.8,1.7,2.2,2.7,4,3.3c0-1.1,0.4-2,0.6-3c0.4-1.3,0.9-2.5,1.6-3.7c0.8-1.6,1.8-3.1,2.9-4.6c1-1.4,2.1-2.7,3.2-4
				c1.6-1.9,3.3-3.7,5.1-5.4c1.4-1.4,2.9-2.7,4.4-3.9c0.7-0.6,1.5-1.2,2.2-1.8c1.4-1,2.7-2.1,4.2-3c0.9-0.6,1.7-1.2,2.6-1.7
				c1.3-0.8,2.6-1.6,4-2.3c1.1-0.6,2.2-1.2,3.4-1.8c1.8-0.8,3.6-1.6,5.5-2.3c1.8-0.6,3.5-1.1,5.4-1.6c1.6-0.4,3.2-0.5,4.9-0.5
				C64.2,21.1,65.3,21.1,66.4,21.5z M37.7,12.7c-0.6,0.2-1,0.2-1.5,0.5c-0.3,0.2-0.8,0.2-1.2,0.2c-0.4-0.1-0.4-0.4-0.6-0.6
				c-0.1-0.1-0.2-0.3-0.3-0.3c-0.6,0.8-1.4,1.5-2,2.2c-0.1,0.1-0.2,0.3-0.4,0.2c-0.1-0.1-0.2-0.3-0.1-0.5c0.2-0.7,0.4-1.3,0.5-2
				c0.2-0.8,0.5-1.6,0.5-2.4c-0.3,0-0.4,0.3-0.6,0.3c-0.1,0.1-0.2,0.2-0.3,0.3c-0.4,0.4-0.9,0.4-1,0.1c-0.3-0.8-0.9-1.3-1.2-2.1
				c-0.1-0.1-0.1-0.3-0.3-0.2c-0.4,0.8-0.8,1.7-1.2,2.5c-0.2,0.5-0.4,0.6-0.9,0.4c-0.4-0.1-0.6-0.4-1-0.5c-0.1,0.2-0.1,0.5,0,0.7
				c0.4,1.1,0.4,2.4,0.9,3.5c0.1,0.2,0,0.3-0.1,0.4c-0.1,0.1-0.3,0.1-0.5,0c-0.2-0.2-0.4-0.4-0.6-0.6c-0.4-0.3-0.7-0.8-1.2-1.1
				c-0.1,0.2-0.2,0.4-0.2,0.5c-0.3,0.7-0.6,0.9-1.3,0.8c-0.4-0.1-0.8-0.1-1.2-0.2c-0.1,0.7,0.3,1.3,0.4,1.9c0.2,0.6,0.1,0.7-0.4,1
				c-0.1,0.1-0.3,0.2-0.3,0.4c1.1,0.8,2.2,1.6,3.3,2.4c0.3,0.2,0.6,0.6,0.3,1c-0.1,0.2-0.1,0.5-0.2,0.8c0.2,0,0.3,0,0.4,0
				c1-0.3,2-0.5,3-0.7c0.6-0.1,0.8,0,0.8,0.6c0,0.8-0.2,1.6-0.1,2.4c0,0.2,0,0.4,0,0.5c-0.1,0.2-0.1,0.3,0.1,0.4
				c0.2,0.1,0.4,0.1,0.5,0c0.2-0.1,0.2-0.2,0.2-0.4c-0.2-1.1-0.1-2.2-0.1-3.3c0-0.4,0.2-0.5,0.5-0.5c0.6,0.1,1.2,0.1,1.8,0.2
				c0.7,0,1.5,0.3,2.3,0.1c-0.1-0.1-0.1-0.2-0.1-0.3c-0.5-0.8-0.4-1.2,0.3-1.8c0.3-0.2,0.6-0.5,0.8-0.7c0.6-0.4,1.1-0.9,1.6-1.3
				c0.5-0.4,1-0.7,1.4-1.3C37.8,16,37.6,16,37.5,16c-0.3,0-0.4-0.2-0.4-0.5c0-0.2,0-0.4,0.1-0.6C37.2,14.2,37.5,13.6,37.7,12.7z
				 M20.8,25.4c-0.1,0-0.1-0.1-0.2-0.1c-0.1-1.4-0.5-2.7-0.7-4.1c0.6-0.2,1-0.6,1.1-1.1c0.1-1.1-0.1-1.4-0.8-1.7
				c-0.7-0.3-1.4-0.1-2.1,0.6c-0.3,0.3-0.4,1.3-0.1,1.7c0.4,0.4,0.3,0.8,0.1,1.3c-0.4,1-0.7,2-1,3.1c0,0.1-0.1,0.2-0.2,0.2
				c-0.5-1.3-0.9-2.6-1.4-3.9c0.7-0.7,0.9-1.3,0.5-1.9c-0.3-0.6-1-0.9-1.5-0.8c-0.7,0.2-1.3,0.7-1.4,1.3c-0.1,0.9,0.2,1.4,1.1,1.8
				c-0.4,1.3-0.6,2.6-0.9,4c-0.3-0.5-0.7-0.8-1-1.2c-0.4-0.5-1-0.9-0.7-1.8c0.2-0.4,0-0.9-0.5-1.2c-0.7-0.4-1.6-0.2-2,0.6
				c-0.4,0.7-0.1,1.5,0.7,1.8c0.4,0.2,0.6,0.4,0.7,0.8c0.2,0.8,0.5,1.5,0.8,2.2c0.3,0.8,0.6,1.5,0.8,2.3c0.1,0.3,0.2,0.4,0.5,0.3
				c0.6-0.1,1.3-0.2,1.9-0.3c1.9-0.2,3.7-0.1,5.6,0c0.6,0,1.2,0.3,1.8,0.1c0-0.2,0-0.3,0.1-0.5c0.6-1.1,0.9-2.3,1.4-3.4
				c0.2-0.5,0.5-1,0.6-1.5c0.1-0.6,0.4-0.9,0.9-1c0.3-0.1,0.4-0.3,0.5-0.5c-0.5-0.1-0.9,0-1.4-0.1c0-0.4-0.1-0.8,0.1-1.2
				c0.2-0.3,0-0.6-0.2-0.7c-0.3-0.2-0.6-0.1-0.8,0.2c-0.7,0.7-0.8,1.2-0.2,2.1C22.2,23.8,21.5,24.6,20.8,25.4z M11.1,33.7
				c2.8-0.2,5.5,0.1,8.2,0.1c0.3,0,0.6-0.1,0.8-0.3c0.5-0.5,1-0.9,1.5-1.4c0.3-0.3,0.7-0.5,0.9-0.9c-1.3-0.2-2.5-0.3-3.8-0.5
				c-2.2-0.3-4.3,0.1-6.5,0.3c-0.3,0-0.6,0.2-0.8,0.5C11.1,32.1,11.1,32.8,11.1,33.7z M42.9,33.1c0,0.9,0,1.6,0,2.4
				c0.9,0,1.7,0,2.5,0c0-0.9,0-1.7,0-2.6c-0.8,0-1.6,0-2.4,0c0-0.8,0-1.6,0-2.4c-0.9,0-1.7,0-2.5,0c0,0.9,0,1.7,0,2.6
				C41.3,33.1,42,33.1,42.9,33.1z M11.2,34.2c-0.5,3.5-0.7,6.9-0.1,10.4c0.5-0.7,0.9-1.2,0.8-2.1c-0.1-1.3,0-2.6,0.1-3.9
				c0.2-1.3,0.2-2.6,0.6-3.9c0.1-0.2,0.1-0.4,0-0.6C12.1,34.2,11.7,34.2,11.2,34.2z M12.4,42.5c0.6-0.8,1.1-1.6,1.7-2.2
				c0.2-0.2,0.3-0.5,0.2-0.9c-0.1-0.6-0.1-1.2,0-1.7c0.1-1.1,0.1-2.3,0.4-3.4c-0.4-0.1-0.7,0-1.1-0.1c-0.3,0-0.4,0.2-0.4,0.4
				c-0.1,1.4-0.5,2.7-0.6,4.1C12.6,39.9,12.4,41.1,12.4,42.5z M30.5,43c-0.9,0-1.7,0-2.5,0c0,0.9,0,1.7,0,2.5c0.9,0,1.7,0,2.5,0
				C30.5,44.7,30.5,43.8,30.5,43z M16.9,23.7c0.5-0.6,0.5-1.5,0.8-2.1c0.1-0.1,0.1-0.2-0.1-0.3c-0.4-0.2-0.3-0.6-0.3-1
				c0-0.3,0-0.7,0-1c-0.5,0.3-0.6,0.7-0.6,1.1c0,0.2,0,0.5-0.2,0.6c-0.5,0.5-0.3,1,0,1.6C16.7,22.9,16.8,23.3,16.9,23.7z"/>
			<path fill="#F7CD11" d="M63.8,75.3c-0.2,1.6-0.9,3.1-1.7,4.4c-0.8,1.2-1.7,2.3-2.9,3.2c-1.2,0.9-2.4,1.6-3.8,2
				c-1.6,0.5-3.3,0.8-5,0.4c-0.9-0.2-1.9-0.4-2.8-0.7c-0.9-0.4-1.9-0.8-2.7-1.3c-0.8-0.5-1.6-1-2.3-1.5c-1.2-0.9-2.3-1.9-3.3-2.9
				c-1.5-1.4-2.9-2.8-4.5-4.1c-1.4-1.2-2.9-2.2-4.5-2.9c-1.1-0.5-2.3-0.8-3.6-0.9c-0.9-0.1-1.7-0.2-2.6,0c-0.6,0.1-1.3,0.2-1.8,0.5
				c-0.5,0.2-1.1,0.3-1.7,0.4c-0.8,0.1-1.5-0.2-1.7-0.8C18.7,70,19.2,69.3,20,69c1.5-0.5,3-0.8,4.5-1c0.1,0,0.3-0.1,0.4-0.2
				c-0.3-0.3-0.7-0.5-1.1-0.7c-1.6-1.1-3-2.4-4.4-3.9c-0.9-0.9-1.7-1.9-2.4-2.9c-0.7-1-1.4-2-1.9-3.1c-0.1-0.2-0.1-0.4,0.1-0.5
				c0.3-0.2,0.3,0.1,0.4,0.3c0.5,1,1.1,1.9,1.7,2.8c1.2,1.7,2.6,3.3,4.2,4.6c0.9,0.7,1.8,1.4,2.7,2c1.5,0.9,3.2,1.7,4.9,2.1
				c1.5,0.4,3,0.7,4.6,0.6c1.6-0.1,3.1-0.1,4.7-0.5c1.8-0.5,3.4-1.2,5.1-2c1.4-0.8,2.7-1.7,3.9-2.8c1.1-1,2-2,2.9-3.2
				c0.7-0.9,1.4-1.9,2-2.9c0.7-1.2,1.3-2.4,1.8-3.7c0.2-0.7,0.5-1.3,0.7-2c0.5-1.3,0.8-2.7,1-4.1c0.5-2.9,0.7-5.8,0.4-8.7
				c-0.1-1.7-0.4-3.4-0.7-5.1c-0.2-0.9-0.5-1.7-0.7-2.5c-0.4-1.2-0.8-2.4-1.3-3.5c-0.4-0.8-0.8-1.5-1.2-2.3
				c-0.2-0.3-0.3-0.7-0.7-1.1c0.7-0.3,1.3-0.6,2-0.8c0.8-0.2,1.5-0.5,2.3-0.7c1.1-0.3,2.3-0.5,3.4-0.8c0.2-0.1,0.4,0,0.6,0
				c0.6,1.1,1.2,2.2,1.7,3.4c0.5,1.2,1,2.3,1.3,3.5c0.5,1.7,1,3.5,1.2,5.3c0.1,1.2,0.3,2.4,0.4,3.6c0.2,2.8-0.1,5.6-0.6,8.4
				c-0.2,1.2-0.5,2.5-0.9,3.7c-0.2,0.6-0.4,1.2-0.6,1.8c-0.3,1.1-0.8,2.2-1.3,3.3c-0.3,0.8-0.8,1.5-1.1,2.2l0,0
				c-0.2,0.1-0.3,0.2-0.3,0.4c-0.6,1-1.2,1.9-1.9,2.8c-1.4,1.9-3,3.7-4.8,5.2c-0.7,0.6-1.5,1.2-2.3,1.7c-0.7,0.4-1.4,0.8-2.1,1.2
				c-1.4,0.8-2.9,1.4-4.4,1.8c-1.1,0.3-2.3,0.6-3.4,0.7c-0.3,0-0.6,0.1-1,0.1c0.1,0.1,0.1,0.2,0.2,0.2c0.8,0.1,1.5,0.5,2.2,0.8
				c0.5,0.2,1.1,0.5,1.6,0.7c0.9,0.4,1.7,0.8,2.5,1.2c0.8,0.5,1.7,0.9,2.6,1.3c1.5,0.7,3,1.4,4.7,1.7c1.2,0.3,2.3,0.4,3.5,0.3
				c1.2-0.1,2.3-0.5,3.3-1.2c0.9-0.5,1.5-1.3,2.3-1.8c0.3-0.2,0.5-0.6,0.9-0.4C63.9,74.4,63.8,74.9,63.8,75.3z"/>
			<path fill="#C52226" d="M37.9,43c0-0.9,0-1.6,0-2.5c-0.8,0-1.6,0-2.4,0c0-0.9,0-1.7,0-2.6c0.8,0,1.6,0,2.5,0
				c0.1,0.8,0,1.6,0.1,2.4c0.8,0,1.5,0,2.3,0c0-0.8,0-1.6,0-2.4c0.9,0,1.7,0,2.6,0c0,0.8,0,1.6,0,2.5c-0.8,0-1.6,0-2.4,0
				c0,0.9,0,1.6,0,2.5c0.8,0,1.5,0,2.4,0c0,0.8,0,1.6,0,2.5c1.7,0,3.4,0,5.1,0c0,0.9,0,1.6,0,2.5c0.8,0,1.5,0,2.3,0
				c0-1.6,0-3.2,0-4.9c-0.8,0-1.6,0-2.4,0c0-0.9,0-1.7,0-2.6c0.8,0,1.6,0,2.4,0c0-1.6,0-3.2,0-4.8c-0.8,0-1.6,0-2.4,0
				c0-1.7,0-3.3,0-5c0.8,0,1.6,0,2.5,0c0,1.6,0,3.2,0,4.8c0.8,0,1.6,0,2.5,0c0,1.7,0,3.3,0,4.9c0.7,0,1.3,0,1.8,0
				c0.2,0.3,0.1,0.5,0.1,0.7c0,2.3-0.1,4.5-0.5,6.8c-0.3,1.5-0.6,2.9-1,4.3c-0.4,1.6-1.1,3.1-1.8,4.5c-0.6,1.3-1.3,2.6-2.2,3.7
				c-0.9,1.3-2.1,2.4-3.3,3.5c-0.8,0.6-1.6,1.2-2.4,1.7c-0.8,0.5-1.7,1-2.6,1.3c-0.5,0.2-1,0.4-1.5,0.6c-2.4,0.9-4.9,1-7.4,0.9
				c-0.4,0-0.9-0.2-1.3-0.2c-1.6-0.3-3.1-0.7-4.5-1.4c-1.6-0.8-3.2-1.7-4.6-2.9c-1.5-1.3-2.8-2.7-4-4.3c-0.6-0.9-1.3-1.8-1.7-2.8
				c-0.1-0.2-0.2-0.3-0.3-0.4c-0.3-0.5-0.4-1-0.1-1.5c0.4-0.8,0.9-1.5,1.3-2.3c0.1-0.1,0.1-0.2,0.3-0.2c0.5,0.8,0.9,1.6,1.4,2.4
				c0.5,0.8,1,1.5,1.6,2.3c0.9,1.2,1.9,2.3,3.1,3.3c1,0.9,2,1.7,3.2,2.4c0.8,0.5,1.6,0.9,2.4,1.3c1.3,0.6,2.7,1.1,4.2,1.3
				c0.7,0.1,1.5,0.3,2.3,0.2c0-0.8,0-1.7,0-2.5c-1.6,0-3.3,0-5,0c0-0.9,0-1.7,0-2.6c1.6,0,3.3,0,5,0c0.1-0.8,0-1.5,0-2.3
				c-0.8,0-1.6,0-2.4,0c0-0.8,0-1.6,0-2.4c-0.9,0-1.6,0-2.5,0c0,0.8,0,1.6,0,2.4c-0.8,0-1.6,0-2.5,0c0,0.8,0,1.6,0,2.3
				c-0.9,0-1.7,0-2.6,0c0-1.6,0-3.2,0-4.9c1.6,0,3.2,0,4.8,0c0-1.7,0-3.3,0-5c0.9,0,1.7,0,2.6,0c0,1.6,0,3.3,0,5c1.7,0,3.2,0,4.9,0
				c0-1.6,0-3.3,0-5c-0.8,0-1.5,0-2.4,0c0-0.9,0-1.7,0-2.6c0.8,0,1.6,0,2.5,0c0,0.8,0,1.6,0,2.4c0.9,0,1.6,0,2.5,0
				c0,0.9,0,1.7,0,2.6c0.8,0,1.5,0,2.3,0c0-0.8,0-1.6,0-2.5c0.9,0,1.7,0,2.6,0c0-0.8,0-1.5,0-2.3c-0.8-0.1-1.6,0-2.5-0.1
				c0-0.8,0-1.6,0-2.4c-0.8,0-1.6,0-2.5,0c0-0.9,0-1.7,0-2.6c-0.8,0-1.5,0-2.3,0c0,0.8,0,1.6,0,2.5c-0.9,0-1.7,0-2.6,0
				c0-0.8,0-1.7,0-2.5C36.3,43,37.1,43,37.9,43z M47.9,55.4c0-0.9,0-1.7,0-2.4c-1.6,0-3.2,0-4.8,0c0,1.6,0,3.2,0,4.8
				c0.8,0,1.6,0,2.4,0c0-0.8,0-1.6,0-2.4C46.3,55.4,47,55.4,47.9,55.4z M50.5,40.5c0,0.8,0,1.6,0,2.4c0.8,0,1.5,0,2.2,0
				c0-0.8,0-1.6,0-2.4C52,40.5,51.3,40.5,50.5,40.5z M38.1,57.9c0.8,0,1.5,0,2.3,0c0-0.8,0-1.6,0-2.4c-0.8,0-1.5,0-2.3,0
				C38.1,56.4,38.1,57.1,38.1,57.9z M42.8,58c-0.8,0-1.5,0-2.3,0c0,0.8,0,1.5,0,2.2c0.8,0,1.5,0,2.3,0C42.8,59.5,42.8,58.8,42.8,58z
				 M40.4,62.7c0-0.8,0-1.4,0-2.2c-0.8,0-1.5,0-2.3,0c0,0.7,0,1.4,0,2.1C38.9,62.7,39.6,62.7,40.4,62.7z M50.5,48.2
				c0,0.7-0.1,1.4,0.1,2.1c0.8,0,1.5,0,2.3,0c0-0.7,0-1.4,0-2.1C52,48.2,51.3,48.2,50.5,48.2z M45.5,63.2c0.7-0.4,1.2-0.8,1.8-1.1
				c0.5-0.3,0.8-0.7,0.7-1.4c0-0.1,0-0.2-0.1-0.2c-0.8,0-1.6,0-2.4,0C45.5,61.4,45.5,62.2,45.5,63.2z"/>
			<path fill="#F7CD11" d="M66.4,21.5c-1.1-0.3-2.3-0.4-3.4-0.4c-1.6,0-3.3,0.1-4.9,0.5c-1.8,0.4-3.6,1-5.4,1.6
				c-1.9,0.6-3.7,1.5-5.5,2.3c-1.2,0.5-2.3,1.2-3.4,1.8c-1.3,0.7-2.6,1.5-4,2.3c-0.9,0.5-1.7,1.1-2.6,1.7c-1.4,0.9-2.8,2-4.2,3
				c-0.8,0.6-1.5,1.2-2.2,1.8c-1.5,1.2-3,2.5-4.4,3.9c-1.8,1.7-3.5,3.5-5.1,5.4c-1.1,1.3-2.2,2.6-3.2,4c-1.1,1.5-2,3-2.9,4.6
				c-0.6,1.2-1.2,2.4-1.6,3.7c-0.3,1-0.6,1.9-0.6,3c-1.8-0.6-3.3-1.6-4-3.3c-0.7-1.5-0.8-3.2-0.4-4.8c0.3-1.6,0.8-3.1,1.5-4.5
				c0.8-1.6,1.7-3.2,2.7-4.7c1.4-2.1,2.9-4,4.6-5.9c1.2-1.4,2.5-2.7,3.8-4c0.8-0.8,1.6-1.5,2.4-2.3c0.6-0.6,1.2-1.1,1.9-1.6
				c1.3-1.1,2.5-2.1,3.9-3.1c1.3-0.9,2.6-1.9,3.9-2.8c1.2-0.7,2.3-1.5,3.5-2.2c1.8-1,3.5-2,5.4-2.9c0.9-0.4,1.8-0.9,2.8-1.3
				c1-0.4,2.1-0.9,3.2-1.2c0.6-0.2,1.1-0.4,1.6-0.6c1.7-0.6,3.5-1,5.2-1.3c1.5-0.3,3-0.3,4.5-0.2c1.1,0,2.1,0.2,3.1,0.6
				c0.8,0.3,1.5,0.7,2.1,1.3c0.5,0.5,0.9,1,1.2,1.6c0.6,1.2,0.7,2.5,0.6,3.9C66.5,21.3,66.5,21.4,66.4,21.5z M21.8,36.8
				c0.1-0.4,0.6-0.6,0.5-1.1c-0.1-0.4-0.1-0.8-0.2-1.1c-0.7,0.3-0.7,0.9-0.6,1.5c0.2,0.5,0,0.9-0.4,1.1c-0.2,0.1-0.2,0.3,0,0.5
				c0.5,0.4,0.9,0.8,1.5,1.3c-1,0.1-1.9,0.1-2.7,0.1c-0.4,0-0.8,0.1-1,0.6c0.8,0.7,1.6,1.4,2.3,2c0.4,0.3,0.5,0.3,0.8-0.2
				c0.1-0.1,0.1-0.2,0.2-0.3c-0.4-0.6-1.1-0.8-1.4-1.4c0.1-0.1,0.3-0.1,0.4-0.1c0.8,0,1.6,0,2.3,0c0.3,0,0.4-0.2,0.6-0.4
				c0.1-0.2,0-0.5-0.1-0.5c-0.4-0.1-0.5-0.5-0.7-0.7C22.8,37.8,22.2,37.4,21.8,36.8z M56.9,15.9c-0.4,0.2-0.7,0.3-1,0.4
				c0,0.8,0.2,1.5,0.4,2.3c-0.7-0.4-1.5-0.8-2.1-1.3c-0.5-0.3-0.8-0.3-1.4,0c0.5,1.2,0.6,2.5,1.2,3.6c0.3-0.1,0.6-0.2,0.9-0.3
				c0-0.7-0.6-1.3-0.3-2.1c0.5,0.4,1,0.7,1.4,1c0.5,0.3,1,0.9,1.6,0.3C57.6,18.5,56.9,17.3,56.9,15.9z M35.6,25.5
				c0.7,1,1.2,2.1,1.9,3.1c0.1-0.1,0.2-0.1,0.3-0.1c0.6-0.2,0.7-0.5,0.3-0.9c-0.3-0.4-0.5-0.9-0.9-1.4c0.6,0.1,1.1,0.4,1.6,0.3
				c0.1-0.4,0.2-0.9,0.4-1.3c0.6,0.5,0.6,1.3,1.2,1.8c0.3,0,0.5-0.3,0.8-0.5c-0.6-1.1-1.1-2.2-1.7-3.2c-0.6,0.1-0.8,0.4-1,0.9
				c-0.1,0.4-0.3,0.8-0.4,1.3c-0.3,0-0.5,0-0.8-0.1C36.8,25.1,36.2,24.8,35.6,25.5z M14.5,52.1c-0.2-0.5-0.2-0.5-0.7-0.7
				c-0.1,0-0.2-0.2-0.3-0.3c-0.6-0.7-1.3-0.8-2.1-0.5c-1,0.4-1.5,1.2-1.7,2.1c-0.3,1.1,0.4,2,1.2,2.2c1.2,0.3,2.5-0.7,2.8-1.8
				C13.8,52.7,13.9,52.3,14.5,52.1z M60.1,17.7c0.3,0.1,0.4-0.1,0.6,0c0,0.2,0.2,0.5-0.1,0.7c-0.3,0.2-0.6,0.4-1,0.2
				c-0.5-0.2-1-0.9-0.9-1.4c0.1-0.6,0.6-1,1.2-1.2c0.6-0.1,1.1,0,1.7,0.3c0.1-0.4,0-0.8-0.2-1.1c-1.2-0.2-2.2,0-3.1,0.9
				c-0.8,0.7-0.8,2-0.1,2.7c0.5,0.5,1.2,0.6,1.9,0.6c0.7-0.1,1.3-0.4,1.9-0.8c-0.1-0.6-0.2-1.3-0.4-1.9c-0.3,0.1-0.5,0.1-0.8,0.2
				c-0.2,0.1-0.5,0.1-0.7,0.2C60.1,17.2,60.1,17.4,60.1,17.7z M31.9,28.7c0,0.8,0.3,1.6,0.9,1.8c1.3,0.5,2.9,0.1,3.4-1.5
				c0.4-1.1,0-1.9-1-2.5C34.1,25.9,31.8,27.2,31.9,28.7z M43.3,21.3c0,0.7,0.4,1.3,0.7,1.9c0.5,1,1.4,1.4,2.5,0.8
				c0.1,0,0.1-0.1,0.2-0.1c0.8-0.3,1.3-1.4,1-2.2c-0.2-0.7-0.5-1.3-0.8-2c-0.1,0-0.3,0.1-0.4,0.1c-0.6,0.2-0.7,0.3-0.4,0.8
				c0.3,0.5,0.4,1,0.6,1.5c0.3,0.6-0.2,1.5-1,1.3c-0.4-0.1-0.6-0.4-0.8-0.7c-0.3-0.6-0.6-1.3-0.8-1.9C43.8,20.9,43.4,21,43.3,21.3z
				 M12.3,48.5c-0.2,0.3-0.4,0.6-0.6,0.9c0.4,0.4,1,0.6,1.5,0.9c0.4,0.3,1,0.5,1.5,0.3c1.1-0.3,1.8-1.5,1.7-2.5c0-0.4-0.1-0.7-0.5-1
				c-0.6-0.4-1.2-0.8-1.8-1.2c-0.4,0.2-0.4,0.6-0.6,0.9c0.5,0.4,1,0.7,1.5,1c0.5,0.3,0.7,0.8,0.5,1.3c-0.3,0.6-0.8,0.7-1.3,0.4
				C13.5,49.2,12.9,48.8,12.3,48.5z M19.3,41.4c-0.3,0.3-0.5,0.7-0.8,1c-0.2,0.2-0.4,0.1-0.5-0.1c-0.1-0.1-0.1-0.3,0.1-0.4
				c0.3-0.2,0.4-0.6,0.7-0.8c0.2-0.2,0.3-0.4,0.1-0.6c-0.3-0.2-0.5-0.1-0.6,0.2c-0.5,0.6-1,1.3-1.6,1.9c0,0,0,0.1,0.1,0.1
				c0.8,0.7,1.7,1.2,2.5,1.9c0.2,0.2,0.5,0.1,0.7-0.1c0.5-0.6,1-1.2,1.5-1.9c-0.2-0.2-0.3-0.3-0.5-0.5c-0.5,0.4-0.8,1.1-1.3,1.5
				c-0.2-0.2-0.4-0.3-0.6-0.5c0.3-0.4,0.6-0.7,0.8-1.1C19.6,41.7,19.4,41.6,19.3,41.4z M18.6,44.6c-0.4,0.5-0.8,1-1.2,1.6
				c-0.2-0.2-0.5-0.3-0.6-0.5c0.2-0.4,0.6-0.7,0.7-1.1c-0.2-0.1-0.3-0.4-0.6-0.4c-0.1,0.3-0.4,0.5-0.5,0.8c-0.1,0.3-0.3,0.4-0.5,0.2
				c-0.2-0.2-0.1-0.4,0.1-0.6c0.3-0.3,0.5-0.7,0.8-1.1c-0.2-0.2-0.4-0.3-0.6-0.5c-0.6,0.8-1.3,1.6-1.8,2.5c0.9,0.6,1.8,1.1,2.6,1.7
				c0.2,0.2,0.6,0.2,0.7-0.1c0.4-0.7,1-1.3,1.4-2C19,45,18.9,44.7,18.6,44.6z M31.4,29.9c-0.5-0.9-0.6-0.9-1.2-0.7
				c-0.7,0.3-1.3,0.8-1.7,1.5c-0.4,0.8-0.4,2,0.7,2.6c1,0.6,2.6,0,3.3-1c0.2-0.3,0.4-0.5,0-0.9c-0.1-0.1-0.1-0.3-0.3-0.3
				C32,31,32,31.2,32,31.4c-0.1,0.4-0.4,0.7-0.7,1c-0.5,0.4-1.4,0.3-1.8-0.2c-0.4-0.5-0.2-1.2,0.2-1.7C30.2,29.9,30.8,30,31.4,29.9z
				 M40,22.9c0.6,1.1,1.1,2.2,1.7,3.4c0.3-0.3,0.6-0.3,0.8-0.5c-0.1-0.5-0.3-0.9-0.6-1.3c0.3-0.2,0.7-0.3,1-0.6
				c0.4-0.4,0.6-1.1,0.4-1.5c-0.3-0.5-0.9-0.6-1.5-0.4C41.1,22.2,40.6,22.5,40,22.9z M25.9,33.7c-0.6-0.2-1,0-1.4,0.4
				C24,34.5,23.8,35,24,35.5c0.2,0.3,0.6,0.5,1.1,0.3c0.3-0.1,0.7-0.2,1-0.2c0.2,0,0.4,0.1,0.4,0.3c0,0.2-0.1,0.3-0.3,0.4
				c-0.3,0.1-0.5-0.1-0.8,0c-0.1,0.3-0.3,0.5-0.2,0.8c1.1,0.4,2.3-0.5,2.2-1.6c0-0.6-0.3-0.8-0.9-0.8c-0.4,0-0.8,0-1.2,0.2
				C25.2,35,25,35,24.9,34.8c0.2-0.4,0.6-0.2,0.9-0.2c0-0.2,0-0.3,0.1-0.4C25.8,34,25.9,33.9,25.9,33.7z M50.9,18.7
				c-0.2-0.7-0.3-0.7-0.9-0.5c-0.3,0.1-0.7,0.3-1,0.4c-0.6,0.2-1.1,0.5-1.7,0.7c0.1,0.3,0.2,0.5,0.3,0.7c0.4,0,0.6-0.4,1.1-0.4
				c0.3,0.9,0.6,1.8,1,2.8c0.2-0.1,0.3-0.2,0.5-0.2c0.6,0,0.5-0.3,0.3-0.7c-0.3-0.8-0.6-1.6-0.8-2.4c0.2-0.1,0.4-0.1,0.6-0.2
				C50.5,18.9,50.7,18.8,50.9,18.7z M52.2,17.6c-1,0-1.2,0.2-0.8,1.2c0.1,0.3,0.3,0.7,0.3,1c0.1,0.6,0.3,1.1,0.6,1.7
				c0.3-0.1,0.6-0.2,0.9-0.3C52.9,20,52.6,18.8,52.2,17.6z"/>
			<path fill="#C52226" d="M37.7,12.7c-0.1,0.8-0.5,1.5-0.6,2.2c0,0.2-0.1,0.4-0.1,0.6c0,0.2,0.1,0.5,0.4,0.5c0.2,0,0.3,0,0.5,0.2
				c-0.4,0.5-0.9,0.9-1.4,1.3c-0.5,0.4-1,0.9-1.6,1.3c-0.3,0.2-0.6,0.5-0.8,0.7c-0.7,0.6-0.8,1-0.3,1.8c0.1,0.1,0.1,0.2,0.1,0.3
				c-0.8,0.2-1.5-0.1-2.3-0.1c-0.6,0-1.2-0.1-1.8-0.2c-0.3-0.1-0.5,0.1-0.5,0.5c0,1.1-0.1,2.2,0.1,3.3c0,0.2,0,0.4-0.2,0.4
				c-0.2,0.1-0.4,0.1-0.5,0c-0.2-0.1-0.2-0.3-0.1-0.4c0.1-0.1,0.1-0.3,0-0.5c-0.1-0.8,0.1-1.6,0.1-2.4c0-0.7-0.2-0.8-0.8-0.6
				c-1,0.2-2,0.3-3,0.7c-0.1,0-0.3,0-0.4,0c0.1-0.3,0.1-0.6,0.2-0.8c0.3-0.5,0-0.8-0.3-1c-1.1-0.8-2.2-1.6-3.3-2.4
				c0-0.2,0.2-0.3,0.3-0.4c0.5-0.3,0.6-0.4,0.4-1c-0.2-0.6-0.5-1.1-0.4-1.9c0.4,0.1,0.8,0.1,1.2,0.2c0.7,0.1,1,0,1.3-0.8
				c0.1-0.2,0.1-0.3,0.2-0.5c0.5,0.3,0.8,0.8,1.2,1.1c0.2,0.2,0.4,0.4,0.6,0.6c0.1,0.1,0.3,0.1,0.5,0c0.1-0.1,0.1-0.2,0.1-0.4
				c-0.4-1.1-0.5-2.4-0.9-3.5c-0.1-0.2-0.1-0.4,0-0.7c0.4,0.1,0.6,0.4,1,0.5c0.6,0.1,0.7,0.1,0.9-0.4c0.4-0.9,0.8-1.7,1.2-2.5
				c0.3-0.1,0.3,0.1,0.3,0.2c0.3,0.7,0.9,1.3,1.2,2.1c0.1,0.4,0.7,0.3,1-0.1c0.1-0.1,0.2-0.2,0.3-0.3c0.2-0.1,0.4-0.3,0.6-0.3
				c0.1,0.9-0.3,1.6-0.5,2.4c-0.2,0.7-0.3,1.4-0.5,2c-0.1,0.3,0,0.4,0.1,0.5c0.2,0.1,0.3-0.1,0.4-0.2c0.7-0.7,1.4-1.4,2-2.2
				c0.2,0,0.3,0.2,0.3,0.3c0.1,0.3,0.2,0.6,0.6,0.6c0.4,0.1,0.9,0.1,1.2-0.2C36.6,12.9,37.1,12.9,37.7,12.7z"/>
			<path fill="#F7CD11" d="M20.8,25.4c0.7-0.8,1.4-1.6,2.1-2.4c-0.5-0.9-0.5-1.4,0.2-2.1c0.2-0.2,0.5-0.3,0.8-0.2
				c0.3,0.2,0.4,0.4,0.2,0.7c-0.2,0.4-0.1,0.8-0.1,1.2c0.5,0.1,0.9,0,1.4,0.1c-0.1,0.2-0.2,0.4-0.5,0.5c-0.5,0.1-0.8,0.4-0.9,1
				c-0.1,0.5-0.4,1-0.6,1.5c-0.5,1.1-0.8,2.3-1.4,3.4C22,29.4,22,29.5,22,29.7c-0.6,0.1-1.2-0.1-1.8-0.1c-1.9-0.1-3.7-0.2-5.6,0
				c-0.6,0.1-1.3,0.1-1.9,0.3c-0.3,0.1-0.4-0.1-0.5-0.3c-0.2-0.8-0.5-1.5-0.8-2.3c-0.2-0.7-0.6-1.5-0.8-2.2
				c-0.1-0.4-0.3-0.7-0.7-0.8c-0.8-0.3-1.1-1.2-0.7-1.8c0.5-0.8,1.4-1,2-0.6c0.5,0.3,0.6,0.8,0.5,1.2c-0.4,0.9,0.2,1.3,0.7,1.8
				c0.3,0.4,0.7,0.7,1,1.2c0.4-1.4,0.5-2.8,0.9-4c-0.9-0.3-1.2-0.9-1.1-1.8c0.1-0.6,0.7-1.1,1.4-1.3c0.5-0.2,1.2,0.2,1.5,0.8
				c0.4,0.6,0.2,1.2-0.5,1.9c0.5,1.3,0.9,2.6,1.4,3.9c0.1,0,0.1-0.1,0.2-0.2c0.3-1,0.6-2.1,1-3.1c0.2-0.5,0.3-0.9-0.1-1.3
				c-0.3-0.3-0.2-1.3,0.1-1.7c0.6-0.7,1.4-0.9,2.1-0.6c0.7,0.3,0.9,0.6,0.8,1.7c0,0.5-0.5,0.9-1.1,1.1c0.2,1.4,0.6,2.7,0.7,4.1
				C20.6,25.4,20.7,25.4,20.8,25.4z"/>
			<path fill="#F7CD11" d="M52.3,13.8c-0.7,0.2-1.4,0.4-2.2,0.6c-0.7,0.2-1.4,0.4-2.1,0.7c-1.1,0.4-2.3,0.8-3.3,1.4
				c-0.3,0.2-0.7,0.2-1,0.4c-0.1,0.1-0.3,0.1-0.4,0c-0.7-0.5-1.5-0.8-2.3-1.2c-0.8-0.4-1.7-0.7-2.6-0.8c-0.2,0-0.4-0.1-0.6-0.2
				c0.2-0.6,0.4-1.2,0.4-1.8c0-0.6-0.1-0.7-0.7-0.7c-0.6,0.1-1.2,0.2-1.7,0.5c-0.2,0.1-0.3,0.1-0.5,0.2c-0.2-0.1-0.2-0.2-0.3-0.3
				c-0.3-0.8-1.1-0.9-1.6-0.2c-0.3,0.4-0.6,0.7-1,1c-0.1-0.4,0.2-0.6,0.2-0.9c0.1-0.7,0.3-1.4,0.4-2.1c0,0,0,0,0-0.1
				c0-0.3,0.1-0.8-0.2-0.9c-0.3-0.1-0.7-0.1-1,0.1c-0.3,0.2-0.6,0.3-0.9,0.6c-0.1-0.3-0.2-0.5-0.3-0.7c0.1,0,0.1-0.1,0.2-0.1
				c1.1-0.2,2.2-0.6,3.3-0.7c0.9-0.1,1.7-0.3,2.6-0.3c2.3,0,4.5,0.2,6.7,0.8c0.6,0.2,1.2,0.4,1.8,0.6c1.1,0.3,2.1,0.8,3.1,1.3
				c0.8,0.4,1.5,0.8,2.2,1.3C51.1,12.8,51.8,13.2,52.3,13.8z"/>
			<path fill="#C52226" d="M52.3,13.8c-0.5-0.6-1.2-0.9-1.8-1.4c-0.7-0.5-1.5-0.9-2.2-1.3c-1-0.5-2-1-3.1-1.3
				c-0.6-0.2-1.2-0.4-1.8-0.6c-2.2-0.6-4.4-0.9-6.7-0.8c-0.9,0-1.7,0.2-2.6,0.3c-1.1,0.1-2.2,0.5-3.3,0.7c-0.1,0-0.1,0.1-0.2,0.1
				c-0.3-0.4-0.6-0.8-0.8-1.3c-0.1-0.3-0.3-0.4-0.6-0.5c5-2.4,10.1-3.2,15.5-1.9c4.8,1.1,8.9,3.5,12.4,7.2
				C55.5,13.1,53.9,13.3,52.3,13.8z"/>
			<path fill="#C52226" d="M59.8,57.3c0.3-0.8,0.7-1.5,1.1-2.2c0.5-1.1,1-2.1,1.3-3.3c0.2-0.6,0.4-1.2,0.6-1.8
				c0.4-1.2,0.7-2.4,0.9-3.7c0.4-2.8,0.8-5.5,0.6-8.4c-0.1-1.2-0.3-2.4-0.4-3.6c-0.2-1.8-0.7-3.6-1.2-5.3c-0.3-1.2-0.8-2.4-1.3-3.5
				c-0.5-1.1-1-2.3-1.7-3.4c1.1-0.1,2.1-0.3,3.2-0.3c0.5,0,0.7,0.2,0.9,0.6c0.3,0.8,0.7,1.6,0.9,2.4c0.5,1.6,1,3.2,1.2,4.8
				c0.1,0.7,0.3,1.4,0.4,2.1c0.2,2.4,0.3,4.9,0.2,7.3c-0.1,1.6-0.4,3.2-0.6,4.9c0,0.3-0.2,0.6-0.2,0.9c-0.3,1.6-0.8,3.1-1.4,4.7
				c-0.4,1-0.8,2-1.3,3c-0.5,1.1-1.1,2.1-1.8,3.2C60.7,56.3,60.4,57,59.8,57.3z"/>
			<path fill="#F7CD11" d="M11.1,33.7c0-0.8,0-1.5,0.4-2.2c0.2-0.4,0.5-0.5,0.8-0.5c2.2-0.2,4.3-0.6,6.5-0.3
				c1.2,0.1,2.5,0.3,3.8,0.5c-0.2,0.4-0.6,0.6-0.9,0.9c-0.5,0.5-1,0.9-1.5,1.4c-0.2,0.2-0.5,0.3-0.8,0.3
				C16.6,33.8,13.9,33.5,11.1,33.7z"/>
			<path fill="#C52226" d="M63.8,75.3c0-0.4,0.1-0.9-0.3-1c-0.3-0.2-0.6,0.2-0.9,0.4c-0.8,0.6-1.5,1.3-2.3,1.8c-1,0.6-2.2,1-3.3,1.2
				c-1.2,0.1-2.3,0-3.5-0.3c-1.6-0.4-3.2-1-4.7-1.7c-0.9-0.4-1.7-0.8-2.6-1.3c-0.8-0.5-1.7-0.9-2.5-1.2c-0.5-0.2-1.1-0.5-1.6-0.7
				c-0.7-0.3-1.4-0.7-2.2-0.8c-0.1,0-0.2-0.1-0.2-0.2c0.3,0,0.6-0.1,1-0.1c0.6,0.4,1.3,0.5,2,0.8c0.6,0.2,1.2,0.5,1.8,0.7
				c1.5,0.5,2.8,1.3,4.3,1.8c1.7,0.7,3.4,1.2,5.2,1.5c1.7,0.3,3.4,0.2,5-0.3c1.2-0.4,2.2-1,3.2-1.8c0.4-0.3,0.7-0.7,1.2-0.8
				c0.6-0.2,0.9,0,0.9,0.6C64.2,74.3,64.1,74.8,63.8,75.3z"/>
			<path fill="#C52226" d="M42.9,33.1c-0.9,0-1.6,0-2.4,0c0-0.9,0-1.7,0-2.6c0.8,0,1.7,0,2.5,0c0,0.8,0,1.6,0,2.4c0.8,0,1.6,0,2.4,0
				c0,0.9,0,1.7,0,2.6c-0.8,0-1.7,0-2.5,0C42.9,34.8,42.9,34,42.9,33.1z"/>
			<path fill="#F7CD11" d="M11.2,34.2c0.5,0,0.9,0,1.4,0c0.1,0.2,0.1,0.4,0,0.6c-0.4,1.3-0.4,2.6-0.6,3.9c-0.2,1.3-0.2,2.6-0.1,3.9
				c0,0.8-0.3,1.4-0.8,2.1C10.5,41,10.7,37.6,11.2,34.2z"/>
			<path fill="#C52226" d="M12.4,42.5c-0.1-1.4,0.2-2.6,0.2-3.8c0-1.4,0.4-2.7,0.6-4.1c0-0.3,0.1-0.4,0.4-0.4c0.3,0,0.7,0,1.1,0.1
				c-0.3,1.1-0.2,2.3-0.4,3.4c-0.1,0.6-0.1,1.2,0,1.7c0.1,0.4,0,0.7-0.2,0.9C13.5,40.9,13.1,41.7,12.4,42.5z"/>
			<path fill="#C52226" d="M22.1,14.1c-0.3,0-0.6,0.2-1,0c2-2.3,4.3-4.3,7-5.8c0,0,0.1,0.1,0.1,0.1c-0.3,0.7-0.7,1.5-1,2.3
				c-0.4-0.3-0.9-0.4-1.4-0.4c-0.4,0-0.6,0.2-0.6,0.5c0,0.3,0,0.7,0,1c-0.4,0.2-0.8,0.4-1.1,0.7C23.4,13.1,22.7,13.6,22.1,14.1z"/>
			<path fill="#C52226" d="M30.5,43c0,0.8,0,1.6,0,2.5c-0.8,0-1.7,0-2.5,0c0-0.8,0-1.6,0-2.5C28.8,43,29.6,43,30.5,43z"/>
			<path fill="#C52226" d="M23,52.9c0-0.8,0-1.7,0-2.6c0.9,0,1.7,0,2.5,0c0,0.8,0,1.6,0,2.5C24.7,52.9,23.9,52.9,23,52.9L23,52.9z"
				/>
			<path fill="#C52226" d="M23,52.9c0,0.8,0,1.7,0,2.6c-0.9,0-1.7,0-2.5,0c0-0.8,0-1.6,0-2.5C21.3,52.9,22.2,52.9,23,52.9L23,52.9z"
				/>
			<path fill="#F7CD11" d="M20.8,15.3c0.2,0.6,0.2,1.2,0.5,1.7c-0.4,0.2-0.7,0.4-0.8,0.9c-0.8-0.2-1.5-0.1-2.2,0.2
				c0.1-0.2,0-0.4,0.2-0.5c0.2-0.1,0.2-0.3,0.3-0.5c0.3,0,0.4-0.2,0.5-0.3C19.8,16.2,20.3,15.7,20.8,15.3z"/>
			<path fill="#F7CD11" d="M16.9,23.7c0-0.4-0.2-0.7-0.4-1.1c-0.2-0.5-0.5-1,0-1.6c0.1-0.1,0.2-0.4,0.2-0.6c0-0.4,0.1-0.8,0.6-1.1
				c0,0.4,0,0.7,0,1c0,0.4-0.1,0.7,0.3,1c0.1,0.1,0.1,0.2,0.1,0.3C17.4,22.2,17.4,23,16.9,23.7z"/>
			<path fill="#F7CD11" d="M22.1,14.1c0.7-0.5,1.3-1,2-1.5c0.4-0.3,0.7-0.5,1.1-0.7c0.2,0.7,0.4,1.3,0.6,2c-0.5,0-0.5-0.4-0.8-0.6
				c-0.6-0.4-1.2-0.3-1.4,0.4c-0.2,0.6-0.3,0.7-0.9,0.5C22.4,14.2,22.2,14.3,22.1,14.1z"/>
			<path fill="#C52226" d="M20.8,15.3c-0.5,0.4-1,0.9-1.5,1.5c-0.1,0.2-0.2,0.4-0.5,0.3c0.3-0.7,0.9-1.2,1.3-1.8
				c0.2-0.2,0.4-0.5,0.7-0.7C20.8,14.8,20.8,15,20.8,15.3z"/>
			<path fill="#C52226" d="M59.6,57.7c0-0.2,0.1-0.3,0.3-0.4C60,57.6,59.6,57.6,59.6,57.7z"/>
			<path fill="#C52226" d="M28.1,8.3c0.1-0.1,0.1-0.1,0.2-0.1c0.1,0.1-0.1,0.1-0.1,0.2C28.1,8.4,28.1,8.4,28.1,8.3z"/>
			<path fill="#223768" d="M47.9,55.4c-0.8,0-1.6,0-2.4,0c0,0.8,0,1.6,0,2.4c-0.8,0-1.6,0-2.4,0c0-1.6,0-3.2,0-4.8
				c1.6,0,3.2,0,4.8,0C47.9,53.7,47.9,54.5,47.9,55.4z"/>
			<path fill="#223768" d="M50.5,40.5c0.8,0,1.5,0,2.2,0c0,0.8,0,1.6,0,2.4c-0.7,0-1.5,0-2.2,0C50.5,42.1,50.5,41.3,50.5,40.5z"/>
			<path fill="#223768" d="M38.1,57.9c0-0.8,0-1.6,0-2.4c0.8,0,1.5,0,2.3,0c0.1,0.8,0,1.6,0,2.4C39.6,57.9,38.9,57.9,38.1,57.9z"/>
			<path fill="#223768" d="M42.8,58c0,0.8,0,1.5,0,2.2c-0.7,0-1.5,0-2.3,0c0-0.7,0-1.5,0-2.2C41.3,58,42,58,42.8,58z"/>
			<path fill="#223768" d="M40.4,62.7c-0.8,0-1.5,0-2.3,0c0-0.7,0-1.4,0-2.1c0.7-0.1,1.5,0,2.3,0C40.4,61.3,40.4,62,40.4,62.7z"/>
			<path fill="#223768" d="M50.5,48.2c0.8,0,1.6,0,2.3,0c0,0.7,0,1.4,0,2.1c-0.7,0-1.5,0-2.3,0C50.4,49.6,50.5,48.9,50.5,48.2z"/>
			<path fill="#223768" d="M45.5,63.2c0-1,0-1.8,0-2.7c0.8,0,1.6,0,2.4,0c0.1,0.1,0.1,0.2,0.1,0.2c0.1,0.6-0.1,1.1-0.7,1.4
				C46.7,62.4,46.1,62.8,45.5,63.2z"/>
			<path fill="#223768" d="M21.8,36.8c0.4,0.6,1,1,1.5,1.5c0.2,0.2,0.4,0.5,0.7,0.7c0.1,0,0.2,0.2,0.1,0.5c-0.1,0.3-0.2,0.4-0.6,0.4
				c-0.8,0-1.6,0-2.3,0c-0.1,0-0.3,0-0.4,0.1c0.3,0.6,1,0.8,1.4,1.4c-0.1,0.1-0.1,0.2-0.2,0.3c-0.3,0.4-0.4,0.5-0.8,0.2
				c-0.8-0.7-1.6-1.3-2.3-2c0.2-0.5,0.5-0.6,1-0.6c0.9,0,1.7-0.1,2.7-0.1c-0.5-0.5-1-0.9-1.5-1.3c-0.2-0.2-0.2-0.4,0-0.5
				c0.4-0.3,0.5-0.6,0.4-1.1c-0.2-0.6-0.2-1.2,0.6-1.5c0.1,0.3,0.1,0.7,0.2,1.1C22.4,36.2,21.9,36.4,21.8,36.8z"/>
			<path fill="#223768" d="M56.9,15.9c0,1.4,0.7,2.6,0.6,3.9c-0.7,0.6-1.1,0-1.6-0.3c-0.5-0.3-0.9-0.6-1.4-1
				c-0.2,0.8,0.3,1.4,0.3,2.1c-0.3,0.1-0.5,0.2-0.9,0.3c-0.6-1.2-0.6-2.5-1.2-3.6c0.5-0.3,0.9-0.3,1.4,0c0.7,0.5,1.4,0.8,2.1,1.3
				c-0.1-0.8-0.4-1.5-0.4-2.3C56.2,16.2,56.5,16.1,56.9,15.9z"/>
			<path fill="#223768" d="M35.6,25.5c0.6-0.7,1.2-0.4,1.8-0.2c0.2,0.1,0.5,0.1,0.8,0.1c0.1-0.5,0.3-0.9,0.4-1.3
				c0.1-0.5,0.4-0.8,1-0.9c0.5,1,1.1,2.1,1.7,3.2c-0.3,0.1-0.5,0.4-0.8,0.5c-0.6-0.5-0.6-1.3-1.2-1.8c-0.2,0.4-0.3,0.8-0.4,1.3
				c-0.5,0.1-1-0.2-1.6-0.3c0.5,0.5,0.6,1,0.9,1.4c0.4,0.5,0.3,0.7-0.3,0.9c-0.1,0-0.1,0.1-0.3,0.1C36.8,27.6,36.3,26.5,35.6,25.5z"
				/>
			<path fill="#223768" d="M14.5,52.1c-0.5,0.2-0.6,0.6-0.8,1.1c-0.3,1.1-1.6,2.1-2.8,1.8c-0.8-0.2-1.4-1.1-1.2-2.2
				c0.2-1,0.7-1.8,1.7-2.1c0.8-0.3,1.5-0.2,2.1,0.5c0.1,0.1,0.2,0.2,0.3,0.3C14.3,51.6,14.3,51.6,14.5,52.1z M12.9,53
				c-0.5-0.3-0.5-0.5-0.3-1c0.1-0.3,0-0.4-0.3-0.5c-0.6-0.3-1.7,0.2-1.8,0.9c-0.2,1,0.2,1.7,1.3,1.5C12.5,53.9,12.8,53.5,12.9,53z"
				/>
			<path fill="#223768" d="M60.1,17.7c0-0.2,0-0.4,0-0.7c0.2-0.1,0.5-0.1,0.7-0.2c0.2-0.1,0.5-0.1,0.8-0.2c0.2,0.6,0.3,1.3,0.4,1.9
				c-0.6,0.4-1.2,0.7-1.9,0.8c-0.7,0.1-1.3,0-1.9-0.6c-0.7-0.7-0.7-2,0.1-2.7c0.9-0.9,1.9-1,3.1-0.9c0.2,0.4,0.3,0.7,0.2,1.1
				c-0.5-0.3-1.1-0.4-1.7-0.3c-0.6,0.1-1.1,0.6-1.2,1.2c-0.1,0.5,0.4,1.2,0.9,1.4c0.4,0.1,0.7,0,1-0.2c0.3-0.2,0.1-0.5,0.1-0.7
				C60.5,17.5,60.4,17.7,60.1,17.7z"/>
			<path fill="#223768" d="M31.9,28.7c-0.1-1.5,2.2-2.8,3.3-2.2c1,0.5,1.4,1.4,1,2.5c-0.6,1.6-2.1,2-3.4,1.5
				C32.2,30.3,31.9,29.6,31.9,28.7z M35.4,28.5c0-0.6-0.6-1.3-1.2-1.2c-0.8,0-1.3,0.4-1.4,1.3c-0.1,0.8,0.4,1.1,1.1,1.2
				C34.7,30,35.3,29.3,35.4,28.5z"/>
			<path fill="#223768" d="M43.3,21.3c0.2-0.3,0.5-0.3,0.8-0.6c0.3,0.7,0.6,1.3,0.8,1.9c0.2,0.3,0.3,0.6,0.8,0.7
				c0.8,0.1,1.3-0.7,1-1.3c-0.2-0.5-0.3-1-0.6-1.5c-0.3-0.5-0.2-0.6,0.4-0.8c0.1,0,0.3-0.1,0.4-0.1c0.2,0.7,0.5,1.3,0.8,2
				c0.3,0.9-0.2,1.9-1,2.2c-0.1,0-0.2,0.1-0.2,0.1c-1.1,0.6-2,0.2-2.5-0.8C43.7,22.6,43.3,22,43.3,21.3z"/>
			<path fill="#223768" d="M12.3,48.5c0.6,0.3,1.2,0.7,1.8,1c0.6,0.3,1,0.2,1.3-0.4c0.3-0.5,0.1-1-0.5-1.3c-0.5-0.3-1-0.6-1.5-1
				c0.2-0.3,0.3-0.7,0.6-0.9c0.6,0.4,1.2,0.8,1.8,1.2c0.4,0.3,0.5,0.6,0.5,1c0.1,1-0.6,2.2-1.7,2.5c-0.6,0.2-1.1-0.1-1.5-0.3
				c-0.5-0.3-1-0.5-1.5-0.9C11.9,49.1,12.1,48.8,12.3,48.5z"/>
			<path fill="#223768" d="M19.3,41.4c0.2,0.2,0.3,0.4,0.5,0.5c-0.2,0.4-0.5,0.7-0.8,1.1c0.2,0.2,0.4,0.3,0.6,0.5
				c0.5-0.4,0.8-1,1.3-1.5c0.2,0.2,0.3,0.3,0.5,0.5c-0.5,0.6-1,1.2-1.5,1.9c-0.2,0.3-0.5,0.3-0.7,0.1c-0.8-0.7-1.7-1.2-2.5-1.9
				c0,0,0-0.1-0.1-0.1c0.5-0.6,1-1.2,1.6-1.9c0.2-0.2,0.4-0.4,0.6-0.2c0.3,0.2,0.2,0.5-0.1,0.6c-0.3,0.2-0.4,0.6-0.7,0.8
				c-0.2,0.1-0.2,0.2-0.1,0.4c0.1,0.2,0.3,0.3,0.5,0.1C18.7,42,19,41.7,19.3,41.4z"/>
			<path fill="#223768" d="M18.6,44.6c0.3,0.1,0.4,0.3,0.5,0.5c-0.4,0.7-1,1.3-1.4,2c-0.2,0.3-0.5,0.3-0.7,0.1
				c-0.8-0.6-1.7-1.1-2.6-1.7c0.5-0.9,1.2-1.6,1.8-2.5c0.2,0.2,0.4,0.3,0.6,0.5c-0.3,0.4-0.5,0.8-0.8,1.1c-0.2,0.2-0.3,0.4-0.1,0.6
				c0.2,0.2,0.4,0.1,0.5-0.2c0.1-0.3,0.4-0.5,0.5-0.8c0.3,0,0.4,0.3,0.6,0.4c-0.1,0.4-0.5,0.7-0.7,1.1c0.1,0.3,0.4,0.3,0.6,0.5
				C17.8,45.7,18.2,45.1,18.6,44.6z"/>
			<path fill="#223768" d="M31.4,29.9c-0.6,0.2-1.2,0-1.7,0.6c-0.4,0.5-0.6,1.3-0.2,1.7c0.4,0.5,1.2,0.6,1.8,0.2
				c0.3-0.3,0.6-0.5,0.7-1c0-0.2,0-0.4,0.3-0.4c0.2,0,0.2,0.2,0.3,0.3c0.4,0.3,0.2,0.6,0,0.9c-0.7,1-2.3,1.6-3.3,1
				c-1-0.6-1-1.8-0.7-2.6c0.3-0.7,0.9-1.2,1.7-1.5C30.8,29,30.9,29,31.4,29.9z"/>
			<path fill="#223768" d="M40,22.9c0.6-0.3,1.2-0.7,1.8-0.9c0.7-0.2,1.2-0.1,1.5,0.4c0.2,0.4,0,1-0.4,1.5c-0.3,0.3-0.6,0.4-1,0.6
				c0.2,0.4,0.5,0.8,0.6,1.3c-0.3,0.1-0.5,0.2-0.8,0.5C41.1,25.1,40.5,24,40,22.9z M42.3,22.8c-0.3,0-0.7-0.1-0.9,0.2
				c-0.2,0.3,0.1,0.6,0.3,0.8C42,23.5,42.5,23.4,42.3,22.8z"/>
			<path fill="#223768" d="M25.9,33.7c0.1,0.2,0,0.3-0.1,0.4c0,0.1,0,0.2-0.1,0.4c-0.3,0.1-0.7-0.1-0.9,0.2c0.1,0.3,0.3,0.2,0.5,0.1
				c0.4-0.2,0.8-0.2,1.2-0.2c0.6,0,0.9,0.3,0.9,0.8c0.1,1.1-1.1,2-2.2,1.6c-0.1-0.3,0.1-0.6,0.2-0.8c0.3-0.1,0.5,0.1,0.8,0
				c0.2-0.1,0.3-0.2,0.3-0.4c0-0.2-0.2-0.3-0.4-0.3c-0.3,0.1-0.7,0.2-1,0.2c-0.6,0.1-1,0-1.1-0.3c-0.2-0.5,0-1,0.4-1.4
				C24.9,33.7,25.3,33.5,25.9,33.7z"/>
			<path fill="#223768" d="M50.9,18.7c-0.2,0.1-0.4,0.2-0.6,0.3c-0.2,0.1-0.4,0.1-0.6,0.2c0.3,0.8,0.5,1.6,0.8,2.4
				c0.2,0.4,0.2,0.7-0.3,0.7c-0.2,0-0.3,0.1-0.5,0.2c-0.3-0.9-0.7-1.8-1-2.8C48.2,19.6,48,20,47.6,20c-0.1-0.2-0.2-0.4-0.3-0.7
				c0.6-0.2,1.1-0.5,1.7-0.7c0.4-0.1,0.7-0.3,1-0.4C50.6,18,50.6,18,50.9,18.7z"/>
			<path fill="#223768" d="M52.2,17.6c0.3,1.2,0.7,2.4,1,3.5c-0.3,0.1-0.6,0.2-0.9,0.3c-0.3-0.5-0.5-1.1-0.6-1.7
				c-0.1-0.4-0.2-0.7-0.3-1C51.1,17.8,51.2,17.6,52.2,17.6z"/>
			<path fill="#F7CD11" d="M12.9,53c-0.2,0.4-0.5,0.8-1,0.9c-1.2,0.2-1.5-0.5-1.3-1.5c0.1-0.7,1.2-1.2,1.8-0.9
				c0.2,0.1,0.4,0.2,0.3,0.5C12.4,52.5,12.5,52.7,12.9,53z"/>
			<path fill="#F7CD11" d="M35.4,28.5c-0.1,0.7-0.7,1.4-1.4,1.3c-0.7-0.1-1.2-0.5-1.1-1.2c0.1-0.9,0.5-1.3,1.4-1.3
				C34.9,27.3,35.4,27.9,35.4,28.5z"/>
			<path fill="#F7CD11" d="M42.3,22.8c0.3,0.6-0.3,0.7-0.6,1c-0.2-0.3-0.5-0.5-0.3-0.8C41.5,22.7,41.9,22.7,42.3,22.8z"/>
		</g>
	</g>
</g>
<g>
	<path fill="#4E4E4E" d="M92.9,14.5c-2.5,0-4.4,0.9-5.8,2.8s-2,4.5-2,7.8c0,6.9,2.6,10.4,7.8,10.4c2.2,0,4.8-0.5,7.9-1.6v5.5
		c-2.5,1.1-5.4,1.6-8.5,1.6c-4.5,0-8-1.4-10.4-4.1c-2.4-2.7-3.6-6.7-3.6-11.8c0-3.2,0.6-6.1,1.8-8.5c1.2-2.4,2.9-4.3,5.1-5.6
		C87.4,9.6,90,9,92.9,9c3,0,6,0.7,9.1,2.2l-2.1,5.4c-1.2-0.6-2.3-1-3.5-1.4S94.1,14.5,92.9,14.5z"/>
	<path fill="#4E4E4E" d="M128.5,28.6c0,3.9-1,6.9-3.1,9.1s-4.9,3.3-8.5,3.3c-2.3,0-4.3-0.5-6-1.5c-1.7-1-3.1-2.4-4-4.3
		s-1.4-4-1.4-6.5c0-3.9,1-6.9,3-9s4.9-3.2,8.5-3.2c2.3,0,4.3,0.5,6,1.5c1.7,1,3.1,2.4,4,4.3S128.5,26.1,128.5,28.6z M112.1,28.6
		c0,2.4,0.4,4.1,1.2,5.3s2,1.8,3.8,1.8c1.7,0,3-0.6,3.7-1.8c0.8-1.2,1.1-3,1.1-5.3c0-2.4-0.4-4.1-1.1-5.3s-2-1.8-3.8-1.8
		c-1.7,0-3,0.6-3.7,1.8C112.5,24.4,112.1,26.2,112.1,28.6z"/>
	<path fill="#4E4E4E" d="M155.1,40.5h-6.5V26.6c0-1.7-0.3-3-0.9-3.9c-0.6-0.9-1.5-1.3-2.7-1.3c-1.7,0-2.9,0.6-3.6,1.8
		c-0.8,1.2-1.1,3.2-1.1,6v11.2h-6.5V16.7h4.9l0.9,3h0.4c0.6-1.1,1.6-1.9,2.8-2.6c1.2-0.6,2.6-0.9,4.1-0.9c3.6,0,6,1.2,7.2,3.5h0.6
		c0.6-1.1,1.6-2,2.8-2.6s2.6-0.9,4.2-0.9c2.7,0,4.7,0.7,6.1,2.1c1.4,1.4,2.1,3.6,2.1,6.6v15.5h-6.5V26.6c0-1.7-0.3-3-0.9-3.9
		c-0.6-0.9-1.5-1.3-2.7-1.3c-1.6,0-2.8,0.6-3.6,1.7c-0.8,1.1-1.2,2.9-1.2,5.4V40.5z"/>
	<path fill="#4E4E4E" d="M189.6,40.9c-2.8,0-5-1-6.6-3h-0.3c0.2,2,0.3,3.1,0.3,3.4v9.6h-6.5V16.7h5.3l0.9,3.1h0.3
		c1.5-2.4,3.8-3.5,6.7-3.5c2.8,0,5,1.1,6.6,3.2s2.4,5.2,2.4,9c0,2.5-0.4,4.7-1.1,6.6s-1.8,3.3-3.2,4.3
		C193.1,40.4,191.5,40.9,189.6,40.9z M187.7,21.5c-1.6,0-2.8,0.5-3.5,1.5s-1.1,2.6-1.1,4.9v0.7c0,2.5,0.4,4.4,1.1,5.5
		c0.8,1.1,2,1.7,3.6,1.7c2.9,0,4.4-2.4,4.4-7.2c0-2.3-0.4-4.1-1.1-5.3C190.4,22.1,189.2,21.5,187.7,21.5z"/>
	<path fill="#4E4E4E" d="M220.9,40.5l-0.9-3h-0.3c-0.7,1.1-1.7,2-3,2.6c-1.3,0.6-2.7,0.9-4.4,0.9c-2.8,0-4.9-0.7-6.3-2.2
		S204,35,204,32.2V16.7h6.5v13.9c0,1.7,0.3,3,0.9,3.9c0.6,0.9,1.6,1.3,2.9,1.3c1.8,0,3.1-0.6,3.9-1.8c0.8-1.2,1.2-3.2,1.2-6V16.7
		h6.5v23.7H220.9z"/>
	<path fill="#4E4E4E" d="M242.7,35.7c1.1,0,2.5-0.2,4.1-0.7v4.8c-1.6,0.7-3.6,1.1-5.9,1.1c-2.6,0-4.5-0.7-5.7-2
		c-1.2-1.3-1.8-3.3-1.8-5.9V21.6h-3.1v-2.7l3.6-2.2l1.9-5h4.1v5.1h6.6v4.9h-6.6V33c0,0.9,0.3,1.6,0.8,2
		C241.2,35.5,241.9,35.7,242.7,35.7z"/>
	<path fill="#4E4E4E" d="M251.3,10.6c0-2.1,1.2-3.2,3.5-3.2s3.5,1.1,3.5,3.2c0,1-0.3,1.8-0.9,2.3c-0.6,0.6-1.5,0.8-2.6,0.8
		C252.5,13.8,251.3,12.7,251.3,10.6z M258.1,40.5h-6.5V16.7h6.5V40.5z"/>
	<path fill="#4E4E4E" d="M286.8,40.5h-6.5V26.6c0-1.7-0.3-3-0.9-3.9c-0.6-0.9-1.6-1.3-2.9-1.3c-1.8,0-3.1,0.6-3.9,1.8
		c-0.8,1.2-1.2,3.2-1.2,6v11.2h-6.5V16.7h4.9l0.9,3h0.4c0.7-1.1,1.7-2,3-2.6s2.7-0.9,4.3-0.9c2.8,0,4.9,0.7,6.3,2.2
		c1.4,1.5,2.1,3.6,2.1,6.5V40.5z"/>
	<path fill="#4E4E4E" d="M314.1,16.7V20l-3.7,1c0.7,1.1,1,2.3,1,3.6c0,2.5-0.9,4.5-2.7,6c-1.8,1.4-4.2,2.1-7.4,2.1l-1.2-0.1l-1-0.1
		c-0.7,0.5-1,1.1-1,1.7c0,0.9,1.2,1.4,3.6,1.4h4c2.6,0,4.6,0.6,6,1.7s2,2.8,2,4.9c0,2.8-1.2,4.9-3.5,6.5s-5.6,2.3-10,2.3
		c-3.3,0-5.8-0.6-7.6-1.7c-1.7-1.2-2.6-2.8-2.6-4.9c0-1.4,0.4-2.6,1.3-3.6c0.9-1,2.2-1.6,3.9-2.1c-0.7-0.3-1.2-0.7-1.7-1.4
		c-0.5-0.6-0.7-1.3-0.7-2c0-0.9,0.3-1.7,0.8-2.3c0.5-0.6,1.3-1.2,2.3-1.8c-1.2-0.5-2.2-1.4-3-2.6c-0.7-1.2-1.1-2.6-1.1-4.2
		c0-2.6,0.8-4.6,2.5-6c1.7-1.4,4.1-2.1,7.2-2.1c0.7,0,1.5,0.1,2.4,0.2c0.9,0.1,1.5,0.2,1.8,0.3H314.1z M295.8,43.8
		c0,0.9,0.4,1.6,1.3,2.1c0.9,0.5,2.1,0.8,3.6,0.8c2.3,0,4.1-0.3,5.5-1c1.3-0.6,2-1.5,2-2.6c0-0.9-0.4-1.5-1.2-1.8
		c-0.8-0.3-2-0.5-3.6-0.5H300c-1.2,0-2.2,0.3-3,0.8S295.8,42.9,295.8,43.8z M298.1,24.5c0,1.3,0.3,2.3,0.9,3.1
		c0.6,0.8,1.5,1.1,2.7,1.1c1.2,0,2.1-0.4,2.7-1.1s0.8-1.8,0.8-3.1c0-2.9-1.2-4.3-3.5-4.3C299.3,20.2,298.1,21.6,298.1,24.5z"/>
	<path fill="#4E4E4E" d="M106.1,64.8c0,4.8-1.2,8.6-3.6,11.2s-5.8,3.9-10.3,3.9s-7.9-1.3-10.3-3.9s-3.6-6.3-3.6-11.2
		c0-4.9,1.2-8.6,3.6-11.2c2.4-2.6,5.9-3.9,10.4-3.9c4.5,0,7.9,1.3,10.3,3.9C104.9,56.2,106.1,59.9,106.1,64.8z M84.7,64.8
		c0,3.3,0.6,5.7,1.9,7.4c1.2,1.7,3.1,2.5,5.6,2.5c5,0,7.4-3.3,7.4-9.9c0-6.6-2.5-9.9-7.4-9.9c-2.5,0-4.3,0.8-5.6,2.5
		C85.3,59.1,84.7,61.5,84.7,64.8z"/>
	<path fill="#4E4E4E" d="M124.2,56.7c0.8,0,1.5,0.1,2.1,0.2l-0.5,5.7c-0.5-0.1-1.1-0.2-1.8-0.2c-1.9,0-3.5,0.5-4.6,1.5
		s-1.6,2.4-1.6,4.2v11.4h-6.1V57.1h4.6l0.9,3.8h0.3c0.7-1.3,1.6-2.3,2.8-3C121.5,57.1,122.8,56.7,124.2,56.7z"/>
	<path fill="#4E4E4E" d="M130,51.3c0-2,1.1-3,3.3-3c2.2,0,3.3,1,3.3,3c0,0.9-0.3,1.7-0.8,2.2c-0.6,0.5-1.4,0.8-2.5,0.8
		C131.1,54.3,130,53.3,130,51.3z M136.4,79.5h-6.1V57.1h6.1V79.5z"/>
	<path fill="#4E4E4E" d="M152.9,79.9c-3.6,0-6.4-1-8.4-3c-2-2-3-4.8-3-8.4c0-3.8,0.9-6.6,2.8-8.7c1.9-2,4.5-3.1,7.8-3.1
		c3.2,0,5.6,0.9,7.4,2.7s2.6,4.3,2.6,7.5v3h-14.4c0.1,1.7,0.6,3.1,1.5,4.1c1,1,2.3,1.5,4,1.5c1.3,0,2.6-0.1,3.8-0.4s2.5-0.7,3.8-1.3
		v4.7c-1.1,0.5-2.2,0.9-3.4,1.2C156.1,79.8,154.7,79.9,152.9,79.9z M152.1,61c-1.3,0-2.3,0.4-3,1.2c-0.7,0.8-1.2,2-1.3,3.5h8.6
		c0-1.5-0.4-2.7-1.2-3.5C154.4,61.4,153.4,61,152.1,61z"/>
	<path fill="#4E4E4E" d="M187.7,79.5h-6.1V66.4c0-1.6-0.3-2.8-0.9-3.6c-0.6-0.8-1.5-1.2-2.7-1.2c-1.7,0-2.9,0.6-3.7,1.7
		c-0.8,1.1-1.1,3-1.1,5.7v10.5H167V57.1h4.7l0.8,2.9h0.3c0.7-1.1,1.6-1.9,2.8-2.5c1.2-0.6,2.6-0.8,4.1-0.8c2.6,0,4.6,0.7,5.9,2.1
		c1.3,1.4,2,3.4,2,6.1V79.5z"/>
	<path fill="#4E4E4E" d="M203.4,75c1.1,0,2.3-0.2,3.8-0.7v4.5c-1.5,0.7-3.4,1-5.6,1c-2.4,0-4.2-0.6-5.3-1.9
		c-1.1-1.2-1.7-3.1-1.7-5.6V61.7h-2.9v-2.6l3.4-2l1.8-4.7h3.9v4.8h6.3v4.6h-6.3v10.8c0,0.9,0.2,1.5,0.7,1.9
		C201.9,74.8,202.6,75,203.4,75z"/>
	<path fill="#4E4E4E" d="M226,79.5l-1.2-3h-0.2c-1,1.3-2.1,2.2-3.2,2.7c-1.1,0.5-2.5,0.8-4.3,0.8c-2.1,0-3.8-0.6-5.1-1.8
		c-1.2-1.2-1.9-3-1.9-5.2c0-2.4,0.8-4.1,2.5-5.3c1.7-1.1,4.2-1.8,7.5-1.9l3.9-0.1v-1c0-2.3-1.2-3.4-3.5-3.4c-1.8,0-3.9,0.5-6.3,1.6
		l-2-4.1c2.6-1.3,5.4-2,8.6-2c3,0,5.3,0.7,6.9,2c1.6,1.3,2.4,3.3,2.4,6v14.9H226z M224.2,69.1l-2.4,0.1c-1.8,0.1-3.1,0.4-4,1
		c-0.9,0.6-1.3,1.5-1.3,2.7c0,1.7,1,2.6,3,2.6c1.4,0,2.5-0.4,3.4-1.2c0.8-0.8,1.3-1.9,1.3-3.2V69.1z"/>
	<path fill="#4E4E4E" d="M246,75c1.1,0,2.3-0.2,3.8-0.7v4.5c-1.5,0.7-3.4,1-5.6,1c-2.4,0-4.2-0.6-5.3-1.9s-1.7-3.1-1.7-5.6V61.7
		h-2.9v-2.6l3.4-2l1.8-4.7h3.9v4.8h6.3v4.6h-6.3v10.8c0,0.9,0.2,1.5,0.7,1.9C244.5,74.8,245.2,75,246,75z"/>
	<path fill="#4E4E4E" d="M254.1,51.3c0-2,1.1-3,3.3-3c2.2,0,3.3,1,3.3,3c0,0.9-0.3,1.7-0.8,2.2c-0.6,0.5-1.4,0.8-2.5,0.8
		C255.2,54.3,254.1,53.3,254.1,51.3z M260.4,79.5h-6.1V57.1h6.1V79.5z"/>
	<path fill="#4E4E4E" d="M287.2,68.2c0,3.6-1,6.5-2.9,8.5c-1.9,2.1-4.6,3.1-8,3.1c-2.1,0-4-0.5-5.7-1.4c-1.6-0.9-2.9-2.3-3.8-4.1
		s-1.3-3.8-1.3-6.2c0-3.7,1-6.5,2.9-8.5c1.9-2,4.6-3,8-3c2.1,0,4,0.5,5.7,1.4c1.6,0.9,2.9,2.3,3.8,4
		C286.7,63.9,287.2,65.9,287.2,68.2z M271.7,68.2c0,2.2,0.4,3.9,1.1,5c0.7,1.1,1.9,1.7,3.6,1.7c1.6,0,2.8-0.6,3.5-1.7
		c0.7-1.1,1.1-2.8,1.1-5c0-2.2-0.4-3.9-1.1-5c-0.7-1.1-1.9-1.7-3.5-1.7c-1.6,0-2.8,0.6-3.5,1.7C272.1,64.4,271.7,66,271.7,68.2z"/>
	<path fill="#4E4E4E" d="M312.9,79.5h-6.1V66.4c0-1.6-0.3-2.8-0.9-3.6c-0.6-0.8-1.5-1.2-2.7-1.2c-1.7,0-2.9,0.6-3.7,1.7
		c-0.8,1.1-1.1,3-1.1,5.7v10.5h-6.1V57.1h4.7l0.8,2.9h0.3c0.7-1.1,1.6-1.9,2.8-2.5c1.2-0.6,2.6-0.8,4.1-0.8c2.6,0,4.6,0.7,5.9,2.1
		c1.3,1.4,2,3.4,2,6.1V79.5z"/>
</g>
</svg>
