<svg width="24" height="24" viewBox="0 0 24 24" fill="none" xmlns="http://www.w3.org/2000/svg">
<path d="M18.6 4.79999C19.3956 4.79999 20.1587 5.11606 20.7213 5.67867C21.2839 6.24128 21.6 7.00434 21.6 7.79999V17.4C21.6 18.1956 21.2839 18.9587 20.7213 19.5213C20.1587 20.0839 19.3956 20.4 18.6 20.4H5.39999C4.60434 20.4 3.84128 20.0839 3.27867 19.5213C2.71606 18.9587 2.39999 18.1956 2.39999 17.4V7.79999C2.39999 7.00434 2.71606 6.24128 3.27867 5.67867C3.84128 5.11606 4.60434 4.79999 5.39999 4.79999H18.6ZM20.4 9.55319L12.3048 14.3172C12.2283 14.3621 12.1427 14.3895 12.0543 14.3974C11.9659 14.4053 11.8769 14.3935 11.7936 14.3628L11.6952 14.3172L3.59999 9.55559V17.4C3.59999 17.8774 3.78964 18.3352 4.1272 18.6728C4.46477 19.0103 4.9226 19.2 5.39999 19.2H18.6C19.0774 19.2 19.5352 19.0103 19.8728 18.6728C20.2104 18.3352 20.4 17.8774 20.4 17.4V9.55319ZM18.6 5.99999H5.39999C4.9226 5.99999 4.46477 6.18963 4.1272 6.5272C3.78964 6.86476 3.59999 7.3226 3.59999 7.79999V8.16239L12 13.104L20.4 8.15999V7.79999C20.4 7.3226 20.2104 6.86476 19.8728 6.5272C19.5352 6.18963 19.0774 5.99999 18.6 5.99999Z" fill="black"/>
</svg>
